<svg width="498" height="502" viewBox="0 0 498 502" fill="none" xmlns="http://www.w3.org/2000/svg">
<g opacity="0.3">
<path d="M308.762 251C308.762 284.006 282.006 310.762 249 310.762C215.994 310.762 189.238 284.006 189.238 251C189.238 217.994 215.994 191.238 249 191.238C282.006 191.238 308.762 217.994 308.762 251Z" fill="#A69F9F"/>
<path fill-rule="evenodd" clip-rule="evenodd" d="M249 502C375.449 502 480.059 408.495 497.458 286.857H350.45C335.683 328.638 295.837 358.571 249 358.571C202.163 358.571 162.317 328.638 147.55 286.857H0.541871C17.9408 408.495 122.551 502 249 502ZM147.55 215.143H0.541871C17.9408 93.5049 122.551 0 249 0C375.449 0 480.059 93.5049 497.458 215.143H350.45C335.683 173.362 295.837 143.429 249 143.429C202.163 143.429 162.317 173.362 147.55 215.143ZM308.762 251C308.762 284.006 282.006 310.762 249 310.762C215.994 310.762 189.238 284.006 189.238 251C189.238 217.994 215.994 191.238 249 191.238C282.006 191.238 308.762 217.994 308.762 251Z" fill="#A69F9F"/>
</g>
</svg>
