<svg width="1025" height="515" viewBox="0 0 1025 515" fill="none" xmlns="http://www.w3.org/2000/svg">
<mask id="path-1-inside-1" fill="white">
<path fill-rule="evenodd" clip-rule="evenodd" d="M388.957 0C390.359 66.8122 444.958 120.542 512.107 120.542C579.255 120.542 633.854 66.8122 635.257 0H388.957ZM1024.21 71.2711C988.352 321.984 772.736 514.71 512.107 514.71C251.477 514.71 35.8616 321.984 0 71.2711H303.003C333.441 157.386 415.569 219.084 512.107 219.084C608.645 219.084 690.773 157.386 721.21 71.2711H1024.21Z"/>
</mask>
<path fill-rule="evenodd" clip-rule="evenodd" d="M388.957 0C390.359 66.8122 444.958 120.542 512.107 120.542C579.255 120.542 633.854 66.8122 635.257 0H388.957ZM1024.21 71.2711C988.352 321.984 772.736 514.71 512.107 514.71C251.477 514.71 35.8616 321.984 0 71.2711H303.003C333.441 157.386 415.569 219.084 512.107 219.084C608.645 219.084 690.773 157.386 721.21 71.2711H1024.21Z" fill="white"/>
<path d="M-10.2325 0.0249391C-10.1107 24.4397 -8.31362 48.4609 -4.94962 71.979L4.94962 70.5631C1.65016 47.4961 -0.113149 23.9313 -0.23264 -0.0249391L-10.2325 0.0249391ZM1024.45 -0.0249331C1024.33 23.9313 1022.56 47.4961 1019.26 70.5631L1029.16 71.9791C1032.53 48.4609 1034.32 24.4397 1034.45 0.0249331L1024.45 -0.0249331ZM388.957 0V-10H378.745L378.959 0.209856L388.957 0ZM635.257 0L645.254 0.209856L645.469 -10H635.257V0ZM1024.21 71.2711L1034.11 72.687L1035.75 61.2711H1024.21V71.2711ZM0 71.2711V61.2711H-11.5322L-9.89924 72.687L0 71.2711ZM303.003 71.2711L312.432 67.9386L310.075 61.2711H303.003V71.2711ZM721.21 71.2711V61.2711H714.138L711.782 67.9386L721.21 71.2711ZM512.107 110.542C450.411 110.542 400.243 61.174 398.955 -0.209856L378.959 0.209856C380.475 72.4505 439.506 130.542 512.107 130.542V110.542ZM625.259 -0.209856C623.97 61.174 573.803 110.542 512.107 110.542V130.542C584.708 130.542 643.738 72.4505 645.254 0.209856L625.259 -0.209856ZM635.257 -10H388.957V10H635.257V-10ZM512.107 524.71C777.782 524.71 997.556 328.255 1034.11 72.687L1014.31 69.8551C979.147 315.712 767.69 504.71 512.107 504.71V524.71ZM-9.89924 72.687C26.6569 328.255 246.431 524.71 512.107 524.71V504.71C256.524 504.71 45.0664 315.712 9.89924 69.8551L-9.89924 72.687ZM303.003 61.2711H0V81.2711H303.003V61.2711ZM512.107 209.084C419.938 209.084 341.501 150.183 312.432 67.9386L293.575 74.6035C325.38 164.589 411.199 229.084 512.107 229.084V209.084ZM711.782 67.9386C682.712 150.183 604.275 209.084 512.107 209.084V229.084C613.014 229.084 698.833 164.589 730.638 74.6035L711.782 67.9386ZM1024.21 61.2711H721.21V81.2711H1024.21V61.2711Z" fill="black" mask="url(#path-1-inside-1)"/>
</svg>
